<svg width="21" height="20" viewBox="0 0 21 20" fill="none" xmlns="http://www.w3.org/2000/svg">
<path d="M14.9337 8.14287C14.9337 8.07144 14.898 7.99108 14.8445 7.93751L14.398 7.49108C14.3445 7.43751 14.2641 7.40179 14.1927 7.40179C14.1212 7.40179 14.0409 7.43751 13.9873 7.49108L10.4784 11L6.96946 7.49108C6.91589 7.43751 6.83553 7.40179 6.7641 7.40179C6.68375 7.40179 6.61232 7.43751 6.55875 7.49108L6.11232 7.93751C6.05875 7.99108 6.02303 8.07144 6.02303 8.14287C6.02303 8.21429 6.05875 8.29465 6.11232 8.34822L10.273 12.5089C10.3266 12.5625 10.407 12.5982 10.4784 12.5982C10.5498 12.5982 10.6302 12.5625 10.6837 12.5089L14.8445 8.34822C14.898 8.29465 14.9337 8.21429 14.9337 8.14287Z" fill="black"/>
</svg>
