<svg width="830" height="6" viewBox="0 0 830 6" fill="none" xmlns="http://www.w3.org/2000/svg">
<g id="&#208;&#162;&#208;&#190;&#209;&#135;&#208;&#186;&#208;&#184;">
<g id="Group 8">
<circle id="Ellipse 4" cx="81.0111" cy="3" r="3" fill="#C4C4C4"/>
<circle id="Ellipse 8" cx="107.011" cy="3" r="3" fill="#C4C4C4"/>
<circle id="Ellipse 5" cx="55.0111" cy="3" r="3" fill="#C4C4C4"/>
<circle id="Ellipse 6" cx="29.0111" cy="3" r="3" fill="#C4C4C4"/>
<circle id="Ellipse 7" cx="3.01111" cy="3" r="3" fill="#C4C4C4"/>
</g>
<g id="Group 9">
<circle id="Ellipse 4_2" cx="321" cy="3" r="3" fill="#C4C4C4"/>
<circle id="Ellipse 8_2" cx="347" cy="3" r="3" fill="#C4C4C4"/>
<circle id="Ellipse 5_2" cx="295" cy="3" r="3" fill="#C4C4C4"/>
<circle id="Ellipse 6_2" cx="269" cy="3" r="3" fill="#C4C4C4"/>
<circle id="Ellipse 7_2" cx="243" cy="3" r="3" fill="#C4C4C4"/>
</g>
<g id="Group 10">
<circle id="Ellipse 4_3" cx="561" cy="3" r="3" fill="#C4C4C4"/>
<circle id="Ellipse 8_3" cx="587" cy="3" r="3" fill="#C4C4C4"/>
<circle id="Ellipse 5_3" cx="535" cy="3" r="3" fill="#C4C4C4"/>
<circle id="Ellipse 6_3" cx="509" cy="3" r="3" fill="#C4C4C4"/>
<circle id="Ellipse 7_3" cx="483" cy="3" r="3" fill="#C4C4C4"/>
</g>
<g id="Group 11">
<circle id="Ellipse 4_4" cx="800.972" cy="3" r="3" fill="#C4C4C4"/>
<circle id="Ellipse 8_4" cx="826.972" cy="3" r="3" fill="#C4C4C4"/>
<circle id="Ellipse 5_4" cx="774.972" cy="3" r="3" fill="#C4C4C4"/>
<circle id="Ellipse 6_4" cx="748.972" cy="3" r="3" fill="#C4C4C4"/>
<circle id="Ellipse 7_4" cx="722.972" cy="3" r="3" fill="#C4C4C4"/>
</g>
</g>
</svg>
